<svg width="109" height="77" viewBox="0 0 109 77" fill="none" xmlns="http://www.w3.org/2000/svg">
<rect x="1.5" y="21.5" width="106" height="54" rx="6.5" fill="#DEEFFF"/>
<rect x="1.5" y="21.5" width="106" height="54" rx="6.5" stroke="black" stroke-width="3"/>
<path d="M25.6364 57H19.7216V39.5455H25.7557C27.4886 39.5455 28.9773 39.8949 30.2216 40.5938C31.4716 41.2869 32.4318 42.2841 33.1023 43.5852C33.7727 44.8864 34.108 46.4432 34.108 48.2557C34.108 50.0739 33.7699 51.6364 33.0938 52.9432C32.4233 54.25 31.4545 55.2528 30.1875 55.9517C28.9261 56.6506 27.4091 57 25.6364 57ZM22.8835 54.2642H25.483C26.6989 54.2642 27.7131 54.0426 28.5256 53.5994C29.3381 53.1506 29.9489 52.483 30.358 51.5966C30.767 50.7045 30.9716 49.5909 30.9716 48.2557C30.9716 46.9205 30.767 45.8125 30.358 44.9318C29.9489 44.0455 29.3438 43.3835 28.5426 42.946C27.7472 42.5028 26.7585 42.2812 25.5767 42.2812H22.8835V54.2642ZM38.4162 57H35.0412L41.1861 39.5455H45.0895L51.2429 57H47.8679L43.206 43.125H43.0696L38.4162 57ZM38.527 50.1562H47.7315V52.696H38.527V50.1562ZM56.7038 39.5455V57H53.5419V39.5455H56.7038ZM60.1278 57V39.5455H66.6733C68.0142 39.5455 69.1392 39.7784 70.0483 40.2443C70.9631 40.7102 71.6534 41.3636 72.1193 42.2045C72.5909 43.0398 72.8267 44.0142 72.8267 45.1278C72.8267 46.2472 72.5881 47.2187 72.1108 48.0426C71.6392 48.8608 70.9432 49.4943 70.0227 49.9432C69.1023 50.3864 67.9716 50.608 66.6307 50.608H61.9688V47.983H66.2045C66.9886 47.983 67.6307 47.875 68.1307 47.6591C68.6307 47.4375 69 47.1165 69.2386 46.696C69.483 46.2699 69.6051 45.7472 69.6051 45.1278C69.6051 44.5085 69.483 43.9801 69.2386 43.5426C68.9943 43.0994 68.6222 42.7642 68.1222 42.5369C67.6222 42.304 66.9773 42.1875 66.1875 42.1875H63.2898V57H60.1278ZM69.1449 49.0909L73.4659 57H69.9375L65.6932 49.0909H69.1449ZM73.8643 39.5455H77.4354L81.7053 47.267H81.8757L86.1456 39.5455H89.7166L83.3672 50.4886V57H80.2138V50.4886L73.8643 39.5455Z" fill="black"/>
<line x1="92.5" y1="-6.55671e-08" x2="92.5" y2="20" stroke="black" stroke-width="3"/>
<line x1="16.5" y1="6.55671e-08" x2="16.5" y2="20" stroke="black" stroke-width="3"/>
</svg>
