<svg width="184" height="77" viewBox="0 0 184 77" fill="none" xmlns="http://www.w3.org/2000/svg">
<rect x="1.5" y="21.5" width="181" height="54" rx="6.5" fill="#DFC6A1"/>
<rect x="1.5" y="21.5" width="181" height="54" rx="6.5" stroke="black" stroke-width="3"/>
<path d="M19.7216 57V39.5455H31.0739V42.196H22.8835V46.9347H30.4858V49.5852H22.8835V54.3494H31.142V57H19.7216ZM43.7855 44.3438C43.706 43.5994 43.3707 43.0199 42.7798 42.6051C42.1946 42.1903 41.4332 41.983 40.4957 41.983C39.8366 41.983 39.2713 42.0824 38.7997 42.2812C38.3281 42.4801 37.9673 42.75 37.7173 43.0909C37.4673 43.4318 37.3395 43.821 37.3338 44.2585C37.3338 44.6222 37.4162 44.9375 37.581 45.2045C37.7514 45.4716 37.9815 45.6989 38.2713 45.8864C38.5611 46.0682 38.8821 46.2216 39.2344 46.3466C39.5866 46.4716 39.9418 46.5767 40.2997 46.6619L41.9361 47.071C42.5952 47.2244 43.2287 47.4318 43.8366 47.6932C44.4503 47.9545 44.9986 48.2841 45.4815 48.6818C45.9702 49.0795 46.3565 49.5597 46.6406 50.1222C46.9247 50.6847 47.0668 51.3437 47.0668 52.0994C47.0668 53.1222 46.8054 54.0227 46.2827 54.8011C45.7599 55.5739 45.0043 56.179 44.0156 56.6165C43.0327 57.0483 41.8423 57.2642 40.4446 57.2642C39.0866 57.2642 37.9077 57.054 36.9077 56.6335C35.9134 56.2131 35.1349 55.5994 34.5724 54.7926C34.0156 53.9858 33.7145 53.0028 33.669 51.8438H36.7798C36.8253 52.4517 37.0128 52.9574 37.3423 53.3608C37.6719 53.7642 38.1009 54.0653 38.6293 54.2642C39.1634 54.4631 39.7599 54.5625 40.419 54.5625C41.1065 54.5625 41.7088 54.4602 42.2259 54.2557C42.7486 54.0455 43.1577 53.7557 43.4531 53.3864C43.7486 53.0114 43.8991 52.5739 43.9048 52.0739C43.8991 51.6193 43.7656 51.2443 43.5043 50.9489C43.2429 50.6477 42.8764 50.3977 42.4048 50.1989C41.9389 49.9943 41.3935 49.8125 40.7685 49.6534L38.7827 49.142C37.3452 48.7727 36.2088 48.2131 35.3736 47.4631C34.544 46.7074 34.1293 45.7045 34.1293 44.4545C34.1293 43.4261 34.4077 42.5256 34.9645 41.7528C35.527 40.9801 36.2912 40.3807 37.2571 39.9545C38.223 39.5227 39.3168 39.3068 40.5384 39.3068C41.777 39.3068 42.8622 39.5227 43.794 39.9545C44.7315 40.3807 45.4673 40.9744 46.0014 41.7358C46.5355 42.4915 46.8111 43.3608 46.8281 44.3438H43.7855ZM59.3714 44.3438C59.2919 43.5994 58.9567 43.0199 58.3658 42.6051C57.7805 42.1903 57.0192 41.983 56.0817 41.983C55.4226 41.983 54.8572 42.0824 54.3857 42.2812C53.9141 42.4801 53.5533 42.75 53.3033 43.0909C53.0533 43.4318 52.9254 43.821 52.9197 44.2585C52.9197 44.6222 53.0021 44.9375 53.1669 45.2045C53.3374 45.4716 53.5675 45.6989 53.8572 45.8864C54.147 46.0682 54.468 46.2216 54.8203 46.3466C55.1726 46.4716 55.5277 46.5767 55.8857 46.6619L57.522 47.071C58.1811 47.2244 58.8146 47.4318 59.4226 47.6932C60.0362 47.9545 60.5845 48.2841 61.0675 48.6818C61.5561 49.0795 61.9425 49.5597 62.2266 50.1222C62.5107 50.6847 62.6527 51.3437 62.6527 52.0994C62.6527 53.1222 62.3913 54.0227 61.8686 54.8011C61.3459 55.5739 60.5902 56.179 59.6016 56.6165C58.6186 57.0483 57.4283 57.2642 56.0305 57.2642C54.6726 57.2642 53.4936 57.054 52.4936 56.6335C51.4993 56.2131 50.7209 55.5994 50.1584 54.7926C49.6016 53.9858 49.3004 53.0028 49.255 51.8438H52.3658C52.4112 52.4517 52.5987 52.9574 52.9283 53.3608C53.2578 53.7642 53.6868 54.0653 54.2152 54.2642C54.7493 54.4631 55.3459 54.5625 56.005 54.5625C56.6925 54.5625 57.2947 54.4602 57.8118 54.2557C58.3345 54.0455 58.7436 53.7557 59.0391 53.3864C59.3345 53.0114 59.4851 52.5739 59.4908 52.0739C59.4851 51.6193 59.3516 51.2443 59.0902 50.9489C58.8288 50.6477 58.4624 50.3977 57.9908 50.1989C57.5249 49.9943 56.9794 49.8125 56.3544 49.6534L54.3686 49.142C52.9311 48.7727 51.7947 48.2131 50.9595 47.4631C50.13 46.7074 49.7152 45.7045 49.7152 44.4545C49.7152 43.4261 49.9936 42.5256 50.5504 41.7528C51.1129 40.9801 51.8771 40.3807 52.843 39.9545C53.8089 39.5227 54.9027 39.3068 56.1243 39.3068C57.3629 39.3068 58.4482 39.5227 59.38 39.9545C60.3175 40.3807 61.0533 40.9744 61.5874 41.7358C62.1214 42.4915 62.397 43.3608 62.4141 44.3438H59.3714ZM65.4716 57V39.5455H76.8239V42.196H68.6335V46.9347H76.2358V49.5852H68.6335V54.3494H76.892V57H65.4716ZM94.3935 39.5455V57H91.581L83.3565 45.1108H83.2116V57H80.0497V39.5455H82.8793L91.0952 51.4432H91.2486V39.5455H94.3935ZM97.0717 42.196V39.5455H110.998V42.196H105.603V57H102.467V42.196H97.0717ZM116.844 39.5455V57H113.683V39.5455H116.844ZM122.51 57H119.135L125.28 39.5455H129.183L135.337 57H131.962L127.3 43.125H127.163L122.51 57ZM122.621 50.1562H131.825V52.696H122.621V50.1562ZM137.636 57V39.5455H140.798V54.3494H148.485V57H137.636ZM160.715 44.3438C160.636 43.5994 160.3 43.0199 159.71 42.6051C159.124 42.1903 158.363 41.983 157.425 41.983C156.766 41.983 156.201 42.0824 155.729 42.2812C155.258 42.4801 154.897 42.75 154.647 43.0909C154.397 43.4318 154.269 43.821 154.263 44.2585C154.263 44.6222 154.346 44.9375 154.511 45.2045C154.681 45.4716 154.911 45.6989 155.201 45.8864C155.491 46.0682 155.812 46.2216 156.164 46.3466C156.516 46.4716 156.871 46.5767 157.229 46.6619L158.866 47.071C159.525 47.2244 160.158 47.4318 160.766 47.6932C161.38 47.9545 161.928 48.2841 162.411 48.6818C162.9 49.0795 163.286 49.5597 163.57 50.1222C163.854 50.6847 163.996 51.3437 163.996 52.0994C163.996 53.1222 163.735 54.0227 163.212 54.8011C162.69 55.5739 161.934 56.179 160.945 56.6165C159.962 57.0483 158.772 57.2642 157.374 57.2642C156.016 57.2642 154.837 57.054 153.837 56.6335C152.843 56.2131 152.065 55.5994 151.502 54.7926C150.945 53.9858 150.644 53.0028 150.599 51.8438H153.71C153.755 52.4517 153.942 52.9574 154.272 53.3608C154.602 53.7642 155.031 54.0653 155.559 54.2642C156.093 54.4631 156.69 54.5625 157.349 54.5625C158.036 54.5625 158.638 54.4602 159.156 54.2557C159.678 54.0455 160.087 53.7557 160.383 53.3864C160.678 53.0114 160.829 52.5739 160.835 52.0739C160.829 51.6193 160.695 51.2443 160.434 50.9489C160.173 50.6477 159.806 50.3977 159.335 50.1989C158.869 49.9943 158.323 49.8125 157.698 49.6534L155.712 49.142C154.275 48.7727 153.138 48.2131 152.303 47.4631C151.474 46.7074 151.059 45.7045 151.059 44.4545C151.059 43.4261 151.337 42.5256 151.894 41.7528C152.457 40.9801 153.221 40.3807 154.187 39.9545C155.153 39.5227 156.246 39.3068 157.468 39.3068C158.707 39.3068 159.792 39.5227 160.724 39.9545C161.661 40.3807 162.397 40.9744 162.931 41.7358C163.465 42.4915 163.741 43.3608 163.758 44.3438H160.715Z" fill="black"/>
<line x1="163.5" y1="-6.55671e-08" x2="163.5" y2="20" stroke="black" stroke-width="3"/>
<line x1="19.5" y1="6.55671e-08" x2="19.5" y2="20" stroke="black" stroke-width="3"/>
</svg>
