<svg width="122" height="77" viewBox="0 0 122 77" fill="none" xmlns="http://www.w3.org/2000/svg">
<rect x="1.5" y="21.5" width="119" height="54" rx="6.5" fill="#F3E0FF"/>
<rect x="1.5" y="21.5" width="119" height="54" rx="6.5" stroke="black" stroke-width="3"/>
<path d="M19.7216 57V39.5455H30.9034V42.196H22.8835V46.9347H30.1364V49.5852H22.8835V57H19.7216ZM33.7841 57V39.5455H40.3295C41.6705 39.5455 42.7955 39.7784 43.7045 40.2443C44.6193 40.7102 45.3097 41.3636 45.7756 42.2045C46.2472 43.0398 46.483 44.0142 46.483 45.1278C46.483 46.2472 46.2443 47.2187 45.767 48.0426C45.2955 48.8608 44.5994 49.4943 43.679 49.9432C42.7585 50.3864 41.6278 50.608 40.2869 50.608H35.625V47.983H39.8608C40.6449 47.983 41.2869 47.875 41.7869 47.6591C42.2869 47.4375 42.6563 47.1165 42.8949 46.696C43.1392 46.2699 43.2614 45.7472 43.2614 45.1278C43.2614 44.5085 43.1392 43.9801 42.8949 43.5426C42.6506 43.0994 42.2784 42.7642 41.7784 42.5369C41.2784 42.304 40.6335 42.1875 39.8438 42.1875H36.946V57H33.7841ZM42.8011 49.0909L47.1222 57H43.5938L39.3494 49.0909H42.8011ZM60.3963 39.5455H63.5582V50.9489C63.5582 52.1989 63.2628 53.2983 62.6719 54.2472C62.0866 55.196 61.2628 55.9375 60.2003 56.4716C59.1378 57 57.8963 57.2642 56.4759 57.2642C55.0497 57.2642 53.8054 57 52.7429 56.4716C51.6804 55.9375 50.8565 55.196 50.2713 54.2472C49.6861 53.2983 49.3935 52.1989 49.3935 50.9489V39.5455H52.5554V50.6847C52.5554 51.4119 52.7145 52.0597 53.0327 52.6278C53.3565 53.196 53.8111 53.642 54.3963 53.9659C54.9815 54.2841 55.6747 54.4432 56.4759 54.4432C57.277 54.4432 57.9702 54.2841 58.5554 53.9659C59.1463 53.642 59.6009 53.196 59.919 52.6278C60.2372 52.0597 60.3963 51.4119 60.3963 50.6847V39.5455ZM70.157 39.5455V57H66.995V39.5455H70.157ZM72.8139 42.196V39.5455H86.7401V42.196H81.3452V57H78.2088V42.196H72.8139ZM98.9105 44.3438C98.831 43.5994 98.4957 43.0199 97.9048 42.6051C97.3196 42.1903 96.5582 41.983 95.6207 41.983C94.9616 41.983 94.3963 42.0824 93.9247 42.2812C93.4531 42.4801 93.0923 42.75 92.8423 43.0909C92.5923 43.4318 92.4645 43.821 92.4588 44.2585C92.4588 44.6222 92.5412 44.9375 92.706 45.2045C92.8764 45.4716 93.1065 45.6989 93.3963 45.8864C93.6861 46.0682 94.0071 46.2216 94.3594 46.3466C94.7116 46.4716 95.0668 46.5767 95.4247 46.6619L97.0611 47.071C97.7202 47.2244 98.3537 47.4318 98.9616 47.6932C99.5753 47.9545 100.124 48.2841 100.607 48.6818C101.095 49.0795 101.482 49.5597 101.766 50.1222C102.05 50.6847 102.192 51.3437 102.192 52.0994C102.192 53.1222 101.93 54.0227 101.408 54.8011C100.885 55.5739 100.129 56.179 99.1406 56.6165C98.1577 57.0483 96.9673 57.2642 95.5696 57.2642C94.2116 57.2642 93.0327 57.054 92.0327 56.6335C91.0384 56.2131 90.2599 55.5994 89.6974 54.7926C89.1406 53.9858 88.8395 53.0028 88.794 51.8438H91.9048C91.9503 52.4517 92.1378 52.9574 92.4673 53.3608C92.7969 53.7642 93.2259 54.0653 93.7543 54.2642C94.2884 54.4631 94.8849 54.5625 95.544 54.5625C96.2315 54.5625 96.8338 54.4602 97.3509 54.2557C97.8736 54.0455 98.2827 53.7557 98.5781 53.3864C98.8736 53.0114 99.0241 52.5739 99.0298 52.0739C99.0241 51.6193 98.8906 51.2443 98.6293 50.9489C98.3679 50.6477 98.0014 50.3977 97.5298 50.1989C97.0639 49.9943 96.5185 49.8125 95.8935 49.6534L93.9077 49.142C92.4702 48.7727 91.3338 48.2131 90.4986 47.4631C89.669 46.7074 89.2543 45.7045 89.2543 44.4545C89.2543 43.4261 89.5327 42.5256 90.0895 41.7528C90.652 40.9801 91.4162 40.3807 92.3821 39.9545C93.348 39.5227 94.4418 39.3068 95.6634 39.3068C96.902 39.3068 97.9872 39.5227 98.919 39.9545C99.8565 40.3807 100.592 40.9744 101.126 41.7358C101.661 42.4915 101.936 43.3608 101.953 44.3438H98.9105Z" fill="black"/>
<line x1="102.5" y1="-6.55671e-08" x2="102.5" y2="20" stroke="black" stroke-width="3"/>
<line x1="18.5" y1="6.55671e-08" x2="18.5" y2="20" stroke="black" stroke-width="3"/>
</svg>
