<svg width="128" height="77" viewBox="0 0 128 77" fill="none" xmlns="http://www.w3.org/2000/svg">
<rect x="1.5" y="21.5" width="125" height="54" rx="6.5" fill="#FFF1BF"/>
<rect x="1.5" y="21.5" width="125" height="54" rx="6.5" stroke="black" stroke-width="3"/>
<path d="M31.4148 45.1193C31.2727 44.6591 31.0767 44.2472 30.8267 43.8835C30.5824 43.5142 30.2869 43.1989 29.9403 42.9375C29.5994 42.6761 29.2074 42.4801 28.7642 42.3494C28.321 42.2131 27.8381 42.1449 27.3153 42.1449C26.3778 42.1449 25.5426 42.3807 24.8097 42.8523C24.0767 43.3239 23.5 44.017 23.0795 44.9318C22.6648 45.8409 22.4574 46.9489 22.4574 48.2557C22.4574 49.5739 22.6648 50.6903 23.0795 51.6051C23.4943 52.5199 24.071 53.2159 24.8097 53.6932C25.5483 54.1648 26.4063 54.4006 27.3835 54.4006C28.2699 54.4006 29.0369 54.2301 29.6847 53.8892C30.3381 53.5483 30.8409 53.0653 31.1932 52.4403C31.5455 51.8097 31.7216 51.071 31.7216 50.2244L32.4375 50.3352H27.6989V47.8636H34.7812V49.9602C34.7812 51.4545 34.4631 52.7472 33.8267 53.8381C33.1903 54.929 32.3153 55.7699 31.2017 56.3608C30.0881 56.946 28.8097 57.2386 27.3665 57.2386C25.7585 57.2386 24.3466 56.8778 23.1307 56.1562C21.9205 55.429 20.9744 54.3977 20.2926 53.0625C19.6165 51.7216 19.2784 50.1307 19.2784 48.2898C19.2784 46.8807 19.4773 45.6222 19.875 44.5142C20.2784 43.4062 20.8409 42.4659 21.5625 41.6932C22.2841 40.9148 23.1307 40.3239 24.1023 39.9205C25.0739 39.5114 26.1307 39.3068 27.2727 39.3068C28.2386 39.3068 29.1392 39.4489 29.9744 39.733C30.8097 40.0114 31.5511 40.4091 32.1989 40.9261C32.8523 41.4432 33.3892 42.0568 33.8097 42.767C34.2301 43.4773 34.5057 44.2614 34.6364 45.1193H31.4148ZM37.8388 57V39.5455H44.3842C45.7251 39.5455 46.8501 39.7784 47.7592 40.2443C48.674 40.7102 49.3643 41.3636 49.8303 42.2045C50.3018 43.0398 50.5376 44.0142 50.5376 45.1278C50.5376 46.2472 50.299 47.2187 49.8217 48.0426C49.3501 48.8608 48.6541 49.4943 47.7337 49.9432C46.8132 50.3864 45.6825 50.608 44.3416 50.608H39.6797V47.983H43.9155C44.6996 47.983 45.3416 47.875 45.8416 47.6591C46.3416 47.4375 46.7109 47.1165 46.9496 46.696C47.1939 46.2699 47.3161 45.7472 47.3161 45.1278C47.3161 44.5085 47.1939 43.9801 46.9496 43.5426C46.7053 43.0994 46.3331 42.7642 45.8331 42.5369C45.3331 42.304 44.6882 42.1875 43.8984 42.1875H41.0007V57H37.8388ZM46.8558 49.0909L51.1768 57H47.6484L43.4041 49.0909H46.8558ZM55.6896 57H52.3146L58.4595 39.5455H62.3629L68.5163 57H65.1413L60.4794 43.125H60.343L55.6896 57ZM55.8004 50.1562H65.005V52.696H55.8004V50.1562ZM73.9773 39.5455V57H70.8153V39.5455H73.9773ZM91.745 39.5455V57H88.9325L80.7081 45.1108H80.5632V57H77.4013V39.5455H80.2308L88.4467 51.4432H88.6001V39.5455H91.745ZM104.676 44.3438C104.597 43.5994 104.261 43.0199 103.67 42.6051C103.085 42.1903 102.324 41.983 101.386 41.983C100.727 41.983 100.162 42.0824 99.6903 42.2812C99.2188 42.4801 98.858 42.75 98.608 43.0909C98.358 43.4318 98.2301 43.821 98.2244 44.2585C98.2244 44.6222 98.3068 44.9375 98.4716 45.2045C98.642 45.4716 98.8722 45.6989 99.1619 45.8864C99.4517 46.0682 99.7727 46.2216 100.125 46.3466C100.477 46.4716 100.832 46.5767 101.19 46.6619L102.827 47.071C103.486 47.2244 104.119 47.4318 104.727 47.6932C105.341 47.9545 105.889 48.2841 106.372 48.6818C106.861 49.0795 107.247 49.5597 107.531 50.1222C107.815 50.6847 107.957 51.3437 107.957 52.0994C107.957 53.1222 107.696 54.0227 107.173 54.8011C106.651 55.5739 105.895 56.179 104.906 56.6165C103.923 57.0483 102.733 57.2642 101.335 57.2642C99.9773 57.2642 98.7983 57.054 97.7983 56.6335C96.804 56.2131 96.0256 55.5994 95.4631 54.7926C94.9063 53.9858 94.6051 53.0028 94.5597 51.8438H97.6705C97.7159 52.4517 97.9034 52.9574 98.233 53.3608C98.5625 53.7642 98.9915 54.0653 99.5199 54.2642C100.054 54.4631 100.651 54.5625 101.31 54.5625C101.997 54.5625 102.599 54.4602 103.116 54.2557C103.639 54.0455 104.048 53.7557 104.344 53.3864C104.639 53.0114 104.79 52.5739 104.795 52.0739C104.79 51.6193 104.656 51.2443 104.395 50.9489C104.134 50.6477 103.767 50.3977 103.295 50.1989C102.83 49.9943 102.284 49.8125 101.659 49.6534L99.6733 49.142C98.2358 48.7727 97.0994 48.2131 96.2642 47.4631C95.4347 46.7074 95.0199 45.7045 95.0199 44.4545C95.0199 43.4261 95.2983 42.5256 95.8551 41.7528C96.4176 40.9801 97.1818 40.3807 98.1477 39.9545C99.1136 39.5227 100.207 39.3068 101.429 39.3068C102.668 39.3068 103.753 39.5227 104.685 39.9545C105.622 40.3807 106.358 40.9744 106.892 41.7358C107.426 42.4915 107.702 43.3608 107.719 44.3438H104.676Z" fill="black"/>
<line x1="108.5" y1="-6.55671e-08" x2="108.5" y2="20" stroke="black" stroke-width="3"/>
<line x1="18.5" y1="6.55671e-08" x2="18.5" y2="20" stroke="black" stroke-width="3"/>
</svg>
