<svg width="118" height="77" viewBox="0 0 118 77" fill="none" xmlns="http://www.w3.org/2000/svg">
<rect x="1.5" y="21.5" width="115" height="54" rx="6.5" fill="#E6E6E6"/>
<rect x="1.5" y="21.5" width="115" height="54" rx="6.5" stroke="black" stroke-width="3"/>
<path d="M35.3182 48.2727C35.3182 50.1534 34.9659 51.7642 34.2614 53.1051C33.5625 54.4403 32.608 55.4631 31.3977 56.1733C30.1932 56.8835 28.8267 57.2386 27.2983 57.2386C25.7699 57.2386 24.4006 56.8835 23.1903 56.1733C21.9858 55.4574 21.0313 54.4318 20.3267 53.0966C19.6278 51.7557 19.2784 50.1477 19.2784 48.2727C19.2784 46.392 19.6278 44.7841 20.3267 43.4489C21.0313 42.108 21.9858 41.0824 23.1903 40.3722C24.4006 39.6619 25.7699 39.3068 27.2983 39.3068C28.8267 39.3068 30.1932 39.6619 31.3977 40.3722C32.608 41.0824 33.5625 42.108 34.2614 43.4489C34.9659 44.7841 35.3182 46.392 35.3182 48.2727ZM32.1392 48.2727C32.1392 46.9489 31.9318 45.8324 31.517 44.9233C31.108 44.0085 30.5398 43.3182 29.8125 42.8523C29.0852 42.3807 28.2472 42.1449 27.2983 42.1449C26.3494 42.1449 25.5114 42.3807 24.7841 42.8523C24.0568 43.3182 23.4858 44.0085 23.071 44.9233C22.6619 45.8324 22.4574 46.9489 22.4574 48.2727C22.4574 49.5966 22.6619 50.7159 23.071 51.6307C23.4858 52.5398 24.0568 53.2301 24.7841 53.7017C25.5114 54.1676 26.3494 54.4006 27.2983 54.4006C28.2472 54.4006 29.0852 54.1676 29.8125 53.7017C30.5398 53.2301 31.108 52.5398 31.517 51.6307C31.9318 50.7159 32.1392 49.5966 32.1392 48.2727ZM36.767 42.196V39.5455H50.6932V42.196H45.2983V57H42.1619V42.196H36.767ZM53.3778 57V39.5455H56.5398V46.9347H64.6278V39.5455H67.7983V57H64.6278V49.5852H56.5398V57H53.3778ZM71.2372 57V39.5455H82.5895V42.196H74.3991V46.9347H82.0014V49.5852H74.3991V54.3494H82.6577V57H71.2372ZM85.8153 57V39.5455H92.3608C93.7017 39.5455 94.8267 39.7784 95.7358 40.2443C96.6506 40.7102 97.3409 41.3636 97.8068 42.2045C98.2784 43.0398 98.5142 44.0142 98.5142 45.1278C98.5142 46.2472 98.2756 47.2187 97.7983 48.0426C97.3267 48.8608 96.6307 49.4943 95.7102 49.9432C94.7898 50.3864 93.6591 50.608 92.3182 50.608H87.6562V47.983H91.892C92.6761 47.983 93.3182 47.875 93.8182 47.6591C94.3182 47.4375 94.6875 47.1165 94.9261 46.696C95.1705 46.2699 95.2926 45.7472 95.2926 45.1278C95.2926 44.5085 95.1705 43.9801 94.9261 43.5426C94.6818 43.0994 94.3097 42.7642 93.8097 42.5369C93.3097 42.304 92.6648 42.1875 91.875 42.1875H88.9773V57H85.8153ZM94.8324 49.0909L99.1534 57H95.625L91.3807 49.0909H94.8324Z" fill="black"/>
<line x1="98.5" y1="-6.55671e-08" x2="98.5" y2="20" stroke="black" stroke-width="3"/>
<line x1="18.5" y1="6.55671e-08" x2="18.5" y2="20" stroke="black" stroke-width="3"/>
</svg>
