<svg width="156" height="77" viewBox="0 0 156 77" fill="none" xmlns="http://www.w3.org/2000/svg">
<rect x="1.5" y="21.5" width="153" height="54" rx="6.5" fill="#FFCBCB"/>
<rect x="1.5" y="21.5" width="153" height="54" rx="6.5" stroke="black" stroke-width="3"/>
<path d="M19.7216 57V39.5455H26.267C27.608 39.5455 28.733 39.7955 29.642 40.2955C30.5568 40.7955 31.2472 41.483 31.7131 42.358C32.1847 43.2273 32.4205 44.2159 32.4205 45.3239C32.4205 46.4432 32.1847 47.4375 31.7131 48.3068C31.2415 49.1761 30.5455 49.8608 29.625 50.3608C28.7045 50.8551 27.571 51.1023 26.2244 51.1023H21.8864V48.5028H25.7983C26.5824 48.5028 27.2244 48.3665 27.7244 48.0938C28.2244 47.821 28.5938 47.446 28.8324 46.9688C29.0767 46.4915 29.1989 45.9432 29.1989 45.3239C29.1989 44.7045 29.0767 44.1591 28.8324 43.6875C28.5938 43.2159 28.2216 42.8494 27.7159 42.5881C27.2159 42.321 26.571 42.1875 25.7812 42.1875H22.8835V57H19.7216ZM35.1669 57V39.5455H41.7124C43.0533 39.5455 44.1783 39.7784 45.0874 40.2443C46.0021 40.7102 46.6925 41.3636 47.1584 42.2045C47.63 43.0398 47.8658 44.0142 47.8658 45.1278C47.8658 46.2472 47.6271 47.2187 47.1499 48.0426C46.6783 48.8608 45.9822 49.4943 45.0618 49.9432C44.1413 50.3864 43.0107 50.608 41.6697 50.608H37.0078V47.983H41.2436C42.0277 47.983 42.6697 47.875 43.1697 47.6591C43.6697 47.4375 44.0391 47.1165 44.2777 46.696C44.522 46.2699 44.6442 45.7472 44.6442 45.1278C44.6442 44.5085 44.522 43.9801 44.2777 43.5426C44.0334 43.0994 43.6612 42.7642 43.1612 42.5369C42.6612 42.304 42.0163 42.1875 41.2266 42.1875H38.3288V57H35.1669ZM44.1839 49.0909L48.505 57H44.9766L40.7322 49.0909H44.1839ZM66.3729 48.2727C66.3729 50.1534 66.0206 51.7642 65.3161 53.1051C64.6172 54.4403 63.6626 55.4631 62.4524 56.1733C61.2479 56.8835 59.8814 57.2386 58.353 57.2386C56.8246 57.2386 55.4553 56.8835 54.245 56.1733C53.0405 55.4574 52.0859 54.4318 51.3814 53.0966C50.6825 51.7557 50.3331 50.1477 50.3331 48.2727C50.3331 46.392 50.6825 44.7841 51.3814 43.4489C52.0859 42.108 53.0405 41.0824 54.245 40.3722C55.4553 39.6619 56.8246 39.3068 58.353 39.3068C59.8814 39.3068 61.2479 39.6619 62.4524 40.3722C63.6626 41.0824 64.6172 42.108 65.3161 43.4489C66.0206 44.7841 66.3729 46.392 66.3729 48.2727ZM63.1939 48.2727C63.1939 46.9489 62.9865 45.8324 62.5717 44.9233C62.1626 44.0085 61.5945 43.3182 60.8672 42.8523C60.1399 42.3807 59.3018 42.1449 58.353 42.1449C57.4041 42.1449 56.5661 42.3807 55.8388 42.8523C55.1115 43.3182 54.5405 44.0085 54.1257 44.9233C53.7166 45.8324 53.5121 46.9489 53.5121 48.2727C53.5121 49.5966 53.7166 50.7159 54.1257 51.6307C54.5405 52.5398 55.1115 53.2301 55.8388 53.7017C56.5661 54.1676 57.4041 54.4006 58.353 54.4006C59.3018 54.4006 60.1399 54.1676 60.8672 53.7017C61.5945 53.2301 62.1626 52.5398 62.5717 51.6307C62.9865 50.7159 63.1939 49.5966 63.1939 48.2727ZM67.8217 42.196V39.5455H81.7479V42.196H76.353V57H73.2166V42.196H67.8217ZM84.4325 57V39.5455H95.7848V42.196H87.5945V46.9347H95.1967V49.5852H87.5945V54.3494H95.853V57H84.4325ZM102.173 39.5455V57H99.0107V39.5455H102.173ZM119.94 39.5455V57H117.128L108.903 45.1108H108.759V57H105.597V39.5455H108.426L116.642 51.4432H116.795V39.5455H119.94ZM132.871 44.3438C132.792 43.5994 132.457 43.0199 131.866 42.6051C131.281 42.1903 130.519 41.983 129.582 41.983C128.923 41.983 128.357 42.0824 127.886 42.2812C127.414 42.4801 127.053 42.75 126.803 43.0909C126.553 43.4318 126.425 43.821 126.42 44.2585C126.42 44.6222 126.502 44.9375 126.667 45.2045C126.837 45.4716 127.067 45.6989 127.357 45.8864C127.647 46.0682 127.968 46.2216 128.32 46.3466C128.673 46.4716 129.028 46.5767 129.386 46.6619L131.022 47.071C131.681 47.2244 132.315 47.4318 132.923 47.6932C133.536 47.9545 134.085 48.2841 134.567 48.6818C135.056 49.0795 135.442 49.5597 135.727 50.1222C136.011 50.6847 136.153 51.3437 136.153 52.0994C136.153 53.1222 135.891 54.0227 135.369 54.8011C134.846 55.5739 134.09 56.179 133.102 56.6165C132.119 57.0483 130.928 57.2642 129.531 57.2642C128.173 57.2642 126.994 57.054 125.994 56.6335C124.999 56.2131 124.221 55.5994 123.658 54.7926C123.102 53.9858 122.8 53.0028 122.755 51.8438H125.866C125.911 52.4517 126.099 52.9574 126.428 53.3608C126.758 53.7642 127.187 54.0653 127.715 54.2642C128.249 54.4631 128.846 54.5625 129.505 54.5625C130.192 54.5625 130.795 54.4602 131.312 54.2557C131.835 54.0455 132.244 53.7557 132.539 53.3864C132.835 53.0114 132.985 52.5739 132.991 52.0739C132.985 51.6193 132.852 51.2443 132.59 50.9489C132.329 50.6477 131.962 50.3977 131.491 50.1989C131.025 49.9943 130.479 49.8125 129.854 49.6534L127.869 49.142C126.431 48.7727 125.295 48.2131 124.46 47.4631C123.63 46.7074 123.215 45.7045 123.215 44.4545C123.215 43.4261 123.494 42.5256 124.05 41.7528C124.613 40.9801 125.377 40.3807 126.343 39.9545C127.309 39.5227 128.403 39.3068 129.624 39.3068C130.863 39.3068 131.948 39.5227 132.88 39.9545C133.817 40.3807 134.553 40.9744 135.087 41.7358C135.621 42.4915 135.897 43.3608 135.914 44.3438H132.871Z" fill="black"/>
<line x1="136.5" y1="-6.55671e-08" x2="136.5" y2="20" stroke="black" stroke-width="3"/>
<line x1="19.5" y1="6.55671e-08" x2="19.5" y2="20" stroke="black" stroke-width="3"/>
</svg>
