<svg width="192" height="77" viewBox="0 0 192 77" fill="none" xmlns="http://www.w3.org/2000/svg">
<rect x="1.5" y="21.5" width="189" height="54" rx="6.5" fill="#D4FFCD"/>
<rect x="1.5" y="21.5" width="189" height="54" rx="6.5" stroke="black" stroke-width="3"/>
<path d="M22.0568 39.5455L26.5994 53.2841H26.7784L31.3125 39.5455H34.7898L28.6364 57H24.733L18.5881 39.5455H22.0568ZM37.0888 57V39.5455H48.4411V42.196H40.2507V46.9347H47.853V49.5852H40.2507V54.3494H48.5092V57H37.0888ZM63.3601 45.1193C63.218 44.6591 63.022 44.2472 62.772 43.8835C62.5277 43.5142 62.2322 43.1989 61.8857 42.9375C61.5447 42.6761 61.1527 42.4801 60.7095 42.3494C60.2663 42.2131 59.7834 42.1449 59.2607 42.1449C58.3232 42.1449 57.4879 42.3807 56.755 42.8523C56.022 43.3239 55.4453 44.017 55.0249 44.9318C54.6101 45.8409 54.4027 46.9489 54.4027 48.2557C54.4027 49.5739 54.6101 50.6903 55.0249 51.6051C55.4396 52.5199 56.0163 53.2159 56.755 53.6932C57.4936 54.1648 58.3516 54.4006 59.3288 54.4006C60.2152 54.4006 60.9822 54.2301 61.63 53.8892C62.2834 53.5483 62.7862 53.0653 63.1385 52.4403C63.4908 51.8097 63.6669 51.071 63.6669 50.2244L64.3828 50.3352H59.6442V47.8636H66.7266V49.9602C66.7266 51.4545 66.4084 52.7472 65.772 53.8381C65.1357 54.929 64.2607 55.7699 63.147 56.3608C62.0334 56.946 60.755 57.2386 59.3118 57.2386C57.7038 57.2386 56.2919 56.8778 55.076 56.1562C53.8658 55.429 52.9197 54.3977 52.2379 53.0625C51.5618 51.7216 51.2237 50.1307 51.2237 48.2898C51.2237 46.8807 51.4226 45.6222 51.8203 44.5142C52.2237 43.4062 52.7862 42.4659 53.5078 41.6932C54.2294 40.9148 55.076 40.3239 56.0476 39.9205C57.0192 39.5114 58.076 39.3068 59.218 39.3068C60.1839 39.3068 61.0845 39.4489 61.9197 39.733C62.755 40.0114 63.4964 40.4091 64.1442 40.9261C64.7976 41.4432 65.3345 42.0568 65.755 42.767C66.1754 43.4773 66.451 44.2614 66.5817 45.1193H63.3601ZM69.7841 57V39.5455H81.1364V42.196H72.946V46.9347H80.5483V49.5852H72.946V54.3494H81.2045V57H69.7841ZM83.5952 42.196V39.5455H97.5213V42.196H92.1264V57H88.9901V42.196H83.5952ZM100.338 57H96.9631L103.108 39.5455H107.011L113.165 57H109.79L105.128 43.125H104.991L100.338 57ZM100.449 50.1562H109.653V52.696H100.449V50.1562ZM115.464 57V39.5455H122.146C123.407 39.5455 124.455 39.7443 125.29 40.142C126.131 40.5341 126.759 41.071 127.174 41.7528C127.594 42.4347 127.805 43.2074 127.805 44.071C127.805 44.7812 127.668 45.3892 127.396 45.8949C127.123 46.3949 126.756 46.8011 126.296 47.1136C125.836 47.4261 125.322 47.6506 124.754 47.7869V47.9574C125.373 47.9915 125.967 48.1818 126.535 48.5284C127.109 48.8693 127.577 49.3523 127.941 49.9773C128.305 50.6023 128.487 51.358 128.487 52.2443C128.487 53.1477 128.268 53.9602 127.83 54.6818C127.393 55.3977 126.734 55.9631 125.853 56.3778C124.972 56.7926 123.864 57 122.529 57H115.464ZM118.626 54.358H122.026C123.174 54.358 124.001 54.1392 124.506 53.7017C125.018 53.2585 125.273 52.6903 125.273 51.9972C125.273 51.4801 125.146 51.0142 124.89 50.5994C124.634 50.179 124.271 49.8494 123.799 49.6108C123.327 49.3665 122.765 49.2443 122.112 49.2443H118.626V54.358ZM118.626 46.9688H121.754C122.299 46.9688 122.79 46.8693 123.228 46.6705C123.665 46.4659 124.009 46.179 124.259 45.8097C124.515 45.4347 124.643 44.9915 124.643 44.4801C124.643 43.804 124.404 43.2472 123.927 42.8097C123.455 42.3722 122.754 42.1534 121.822 42.1534H118.626V46.9688ZM131.237 57V39.5455H134.399V54.3494H142.087V57H131.237ZM144.831 57V39.5455H156.183V42.196H147.993V46.9347H155.595V49.5852H147.993V54.3494H156.251V57H144.831ZM168.895 44.3438C168.815 43.5994 168.48 43.0199 167.889 42.6051C167.304 42.1903 166.543 41.983 165.605 41.983C164.946 41.983 164.381 42.0824 163.909 42.2812C163.438 42.4801 163.077 42.75 162.827 43.0909C162.577 43.4318 162.449 43.821 162.443 44.2585C162.443 44.6222 162.526 44.9375 162.69 45.2045C162.861 45.4716 163.091 45.6989 163.381 45.8864C163.67 46.0682 163.991 46.2216 164.344 46.3466C164.696 46.4716 165.051 46.5767 165.409 46.6619L167.045 47.071C167.705 47.2244 168.338 47.4318 168.946 47.6932C169.56 47.9545 170.108 48.2841 170.591 48.6818C171.08 49.0795 171.466 49.5597 171.75 50.1222C172.034 50.6847 172.176 51.3437 172.176 52.0994C172.176 53.1222 171.915 54.0227 171.392 54.8011C170.869 55.5739 170.114 56.179 169.125 56.6165C168.142 57.0483 166.952 57.2642 165.554 57.2642C164.196 57.2642 163.017 57.054 162.017 56.6335C161.023 56.2131 160.244 55.5994 159.682 54.7926C159.125 53.9858 158.824 53.0028 158.778 51.8438H161.889C161.935 52.4517 162.122 52.9574 162.452 53.3608C162.781 53.7642 163.21 54.0653 163.739 54.2642C164.273 54.4631 164.869 54.5625 165.528 54.5625C166.216 54.5625 166.818 54.4602 167.335 54.2557C167.858 54.0455 168.267 53.7557 168.562 53.3864C168.858 53.0114 169.009 52.5739 169.014 52.0739C169.009 51.6193 168.875 51.2443 168.614 50.9489C168.352 50.6477 167.986 50.3977 167.514 50.1989C167.048 49.9943 166.503 49.8125 165.878 49.6534L163.892 49.142C162.455 48.7727 161.318 48.2131 160.483 47.4631C159.653 46.7074 159.239 45.7045 159.239 44.4545C159.239 43.4261 159.517 42.5256 160.074 41.7528C160.636 40.9801 161.401 40.3807 162.366 39.9545C163.332 39.5227 164.426 39.3068 165.648 39.3068C166.886 39.3068 167.972 39.5227 168.903 39.9545C169.841 40.3807 170.577 40.9744 171.111 41.7358C171.645 42.4915 171.92 43.3608 171.938 44.3438H168.895Z" fill="black"/>
<line x1="172.5" y1="-6.55671e-08" x2="172.5" y2="20" stroke="black" stroke-width="3"/>
<line x1="18.5" y1="6.55671e-08" x2="18.5" y2="20" stroke="black" stroke-width="3"/>
</svg>
